<svg xmlns="http://www.w3.org/2000/svg" version="1.1" xmlns:xlink="http://www.w3.org/1999/xlink" xmlns:svgjs="http://svgjs.dev/svgjs" width="1440" height="560" preserveAspectRatio="none" viewBox="0 0 1440 560"><g mask="url(&quot;#SvgjsMask1002&quot;)" fill="none"><rect width="1440" height="560" x="0" y="0" fill="rgba(2, 55, 96, 1)"></rect><path d="M -136.231148327293,481 C -40.23,402.4 151.77,83.6 343.768851672707,88 C 535.77,92.4 631.77,501.4 823.768851672707,503 C 1015.77,504.6 1111.77,98.6 1303.7688516727071,96 C 1495.77,93.4 1756.52,454.8 1783.7688516727071,490 C 1811.02,525.2 1508.75,315.6 1440,272" stroke="rgba(37, 99, 235, 1)" stroke-width="2"></path><path d="M -660.9648280857766,392 C -564.96,329.2 -372.96,58.8 -180.96482808577667,78 C 11.04,97.2 107.04,454.6 299.0351719142233,488 C 491.04,521.4 587.04,275.8 779.0351719142234,245 C 971.04,214.2 1126.84,346.6 1259.0351719142234,334 C 1391.23,321.4 1403.81,212.4 1440,182" stroke="rgba(37, 99, 235, 1)" stroke-width="2"></path><path d="M -691.5582342071436,77 C -595.56,154.8 -403.56,456.8 -211.55823420714358,466 C -19.56,475.2 76.44,157.2 268.4417657928564,123 C 460.44,88.8 556.44,282.2 748.4417657928564,295 C 940.44,307.8 1090.13,167 1228.4417657928564,187 C 1366.75,207 1397.69,353.4 1440,395" stroke="rgba(37, 99, 235, 1)" stroke-width="2"></path><path d="M -601.3173354199713,126 C -505.32,190.4 -313.32,422.8 -121.31733541997134,448 C 70.68,473.2 166.68,266 358.68266458002864,252 C 550.68,238 646.68,415.8 838.6826645800287,378 C 1030.68,340.2 1198.42,40 1318.6826645800286,63 C 1438.95,86 1415.74,407 1440,493" stroke="rgba(37, 99, 235, 1)" stroke-width="2"></path></g><defs><mask id="SvgjsMask1002"><rect width="1440" height="560" fill="#ffffff"></rect></mask></defs></svg>