<svg xmlns="http://www.w3.org/2000/svg" version="1.1" xmlns:xlink="http://www.w3.org/1999/xlink" xmlns:svgjs="http://svgjs.dev/svgjs" width="1440" height="560" preserveAspectRatio="none" viewBox="0 0 1440 560"><g mask="url(&quot;#SvgjsMask1046&quot;)" fill="none"><rect width="1440" height="560" x="0" y="0" fill="rgba(2, 55, 96, 1)"></rect><path d="M0,379.568C70.065,378.665,123.373,321.576,182.092,283.34C240.427,245.354,308.397,217.089,342.617,156.468C378.085,93.637,388.769,16.713,372.249,-53.521C356.335,-121.176,304.477,-172.31,254.036,-220.123C207.59,-264.148,156.606,-308.243,93.342,-317.893C33.084,-327.084,-21.228,-288.647,-79.575,-271.008C-137.353,-253.541,-197.797,-248.51,-247.834,-214.75C-309.001,-173.48,-378.998,-128.669,-396.705,-57.038C-414.635,15.496,-378.263,91.213,-339.212,154.913C-303,213.982,-242.899,249.817,-185.134,288.074C-126.557,326.869,-70.253,380.474,0,379.568" fill="#01243e"></path><path d="M1440 970.4839999999999C1542.188 996.473 1650.276 1081.47 1743.651 1032.491 1835.216 984.461 1816.163 845.453 1858.336 751.047 1900.041 657.69 2007.04 581.742 1990.0529999999999 480.914 1973.028 379.85699999999997 1857.83 330.971 1776.96 268.023 1710.566 216.344 1643.888 162.83300000000003 1561.231 147.127 1482.787 132.221 1406.998 164.59300000000002 1329.291 182.95800000000003 1246.753 202.46499999999997 1151.304 197.872 1091.607 258.116 1031.141 319.137 1026.518 413.781 1016.075 499.049 1005.8240000000001 582.754 993.309 671.386 1031.806 746.4159999999999 1069.709 820.287 1148.882 859.784 1221.665 899.736 1290.115 937.31 1364.324 951.238 1440 970.4839999999999" fill="#034a82"></path></g><defs><mask id="SvgjsMask1046"><rect width="1440" height="560" fill="#ffffff"></rect></mask></defs></svg>